<?xml version="1.0"?>
<svg version="1.1" xmlns="http://www.w3.org/2000/svg" width="350px" height="80px" style="border: 2px solid grey;border-radius: 25px;"><path fill="#01a6f8" d="M63.986,70.555l0-29.61l-5.985,0l-1.575,5.985l-5.796,0l0-13.545l36.54,0l0,13.545l-5.859,0l-1.575-5.985l-5.985,0l0,29.61l5.985,1.89l0,5.355l-21.735,0l0-5.355z M94.69913,77.8l0-5.355l4.725-1.89l0-29.61l-4.725-1.89l0-5.355l19.215-0.315l0,5.67l-4.725,1.89l0,29.61l4.725,1.89l0,5.355l-19.215,0z M150.86426,51.34l0,6.93l-12.726,0l0,11.97l11.277,0l1.449-5.166l5.67,0l0,12.726l-32.886,0l0-5.355l4.725-1.89l0-29.61l-4.725-1.89l0-5.355l14.49-0.315l17.64,0l0,12.159l-5.67,0l-1.575-4.599l-10.395,0l0,10.395l12.726,0z M166.58339,77.8l0-5.355l4.725-1.89l0-29.61l-4.725-1.89l0-5.355l15.12-0.315l17.01,29.106l0-21.546l-4.599-1.89l0-5.355l17.955-0.315l0,5.67l-4.725,1.89l0,36.855l-10.521,0l-16.884-28.539l0,21.294l4.914,1.89l0,5.355l-18.27,0z M225.58352,70.555l0-29.61l-4.725-1.89l0-5.355l14.49-0.315l5.985,0c12.6,0,20.034,7.434,20.034,21.609s-8.19,22.806-20.979,22.806l-19.53,0l0-5.355z M235.34852,70.24l5.229,0c6.111,0,10.206-3.591,10.206-14.931c0-10.584-3.591-14.364-9.765-14.364l-5.67,0l0,29.295z M315.70565,72.445l0,5.355l-20.034,0l0-5.355l4.725-1.701l-1.512-4.599l-13.986,0l-1.575,4.536l4.914,1.764l0,5.355l-19.026,0l0-5.355l4.599-1.764l13.86-37.107l10.08-0.189l13.545,37.296z M296.80565,59.404l-4.725-14.931l-4.977,14.931l9.702,0z"/><path fill="#087cee" d=""/></svg>
